name C:\Users\u0101727\Documents\MyRepositories\upper-imu-dc\Results\main_tracking\Case_31\FLX01_linearAccelerations_groundFrame.mot
datacolumns 4
datarows 70
range 2.01000000 2.70000000
endheader 
time	radius_imu_x	radius_imu_y	radius_imu_z	
          2.01000000	         -2.56902541	          8.88230281	          5.03157312	
          2.02000000	         -2.20183373	          8.78848882	          4.46817667	
          2.03000000	         -1.84473575	          8.70633146	          3.88734244	
          2.04000000	         -1.49834226	          8.64487501	          3.31880685	
          2.05000000	         -1.16783008	          8.61376237	          2.78941324	
          2.06000000	         -0.86322129	          8.61949715	          2.31698782	
          2.07000000	         -0.59754150	          8.66250390	          1.90699341	
          2.08000000	         -0.38364215	          8.73593125	          1.55282716	
          2.09000000	         -0.23068530	          8.82656035	          1.23915384	
          2.10000000	         -0.14088802	          8.91781560	          0.94739958	
          2.11000000	         -0.10722455	          8.99445157	          0.66264742	
          2.12000000	         -0.11379603	          9.04761532	          0.38005977	
          2.13000000	         -0.14052406	          9.07825640	          0.10842673	
          2.14000000	         -0.17079259	          9.09683165	         -0.13149352	
          2.15000000	         -0.19715239	          9.11863311	         -0.31515281	
          2.16000000	         -0.22145262	          9.15700775	         -0.42523294	
          2.17000000	         -0.25056044	          9.21830060	         -0.45849243	
          2.18000000	         -0.29085861	          9.30074706	         -0.42520293	
          2.19000000	         -0.34398183	          9.39728829	         -0.34286631	
          2.20000000	         -0.40556569	          9.50042340	         -0.22814062	
          2.21000000	         -0.46737346	          9.60575374	         -0.09174294	
          2.22000000	         -0.52112014	          9.71161668	          0.06063431	
          2.23000000	         -0.56172678	          9.81570098	          0.22339956	
          2.24000000	         -0.58869073	          9.91214975	          0.38746039	
          2.25000000	         -0.60529182	          9.99125596	          0.54053520	
          2.26000000	         -0.61613358	         10.04119025	          0.66985038	
          2.27000000	         -0.62433309	         10.05055281	          0.76507804	
          2.28000000	         -0.62989940	         10.01109012	          0.82059885	
          2.29000000	         -0.62962134	          9.92008303	          0.83678867	
          2.30000000	         -0.61802039	          9.78188185	          0.82026259	
          2.31000000	         -0.58926808	          9.60818791	          0.78339292	
          2.32000000	         -0.53956060	          9.41664319	          0.74292229	
          2.33000000	         -0.46887787	          9.22733494	          0.71659467	
          2.34000000	         -0.38112683	          9.05792549	          0.71782618	
          2.35000000	         -0.28287226	          8.91983601	          0.75129070	
          2.36000000	         -0.18173402	          8.81756217	          0.81239255	
          2.37000000	         -0.08495618	          8.75036799	          0.88981482	
          2.38000000	          0.00203482	          8.71430110	          0.96854876	
          2.39000000	          0.07670014	          8.70394398	          1.03283348	
          2.40000000	          0.13936789	          8.71392908	          1.06913131	
          2.41000000	          0.19232199	          8.73957040	          1.06798551	
          2.42000000	          0.23886011	          8.77654909	          1.02409021	
          2.43000000	          0.28267579	          8.82067915	          0.93561273	
          2.44000000	          0.32719520	          8.86836774	          0.80388905	
          2.45000000	          0.37440808	          8.91742505	          0.63366169	
          2.46000000	          0.42333141	          8.96766572	          0.43359035	
          2.47000000	          0.46892684	          9.02087527	          0.21653188	
          2.48000000	          0.50241250	          9.07978285	         -0.00133202	
          2.49000000	          0.51347374	          9.14619472	         -0.20313950	
          2.50000000	          0.49374734	          9.21961123	         -0.37461863	
          2.51000000	          0.43983149	          9.29761396	         -0.50590961	
          2.52000000	          0.35443790	          9.37718399	         -0.59175237	
          2.53000000	          0.24558743	          9.45511159	         -0.63145575	
          2.54000000	          0.12458098	          9.52751218	         -0.62897121	
          2.55000000	          0.00383024	          9.59005299	         -0.59218617	
          2.56000000	         -0.10457277	          9.63956605	         -0.53117145	
          2.57000000	         -0.18954963	          9.67585669	         -0.45617449	
          2.58000000	         -0.24179753	          9.70201443	         -0.37635341	
          2.59000000	         -0.25552630	          9.72268153	         -0.29947815	
          2.60000000	         -0.23085056	          9.74103934	         -0.23229287	
          2.61000000	         -0.17514431	          9.75624841	         -0.18086046	
          2.62000000	         -0.10175056	          9.76317659	         -0.15013592	
          2.63000000	         -0.02630826	          9.75483870	         -0.14269645	
          2.64000000	          0.03759955	          9.72598612	         -0.15761133	
          2.65000000	          0.08167938	          9.67588599	         -0.19035510	
          2.66000000	          0.10416690	          9.60938719	         -0.23366005	
          2.67000000	          0.10910313	          9.53643809	         -0.27854584	
          2.68000000	          0.10394415	          9.47051298	         -0.31501633	
          2.69000000	          0.09616221	          9.42596666	         -0.33288685	
          2.70000000	          0.09016940	          9.41425475	         -0.32361912	
